<?xml version="1.0" standalone="no"?>
<!DOCTYPE svg PUBLIC "-//W3C//DTD SVG 20010904//EN"
 "http://www.w3.org/TR/2001/REC-SVG-20010904/DTD/svg10.dtd">
<svg version="1.0" xmlns="http://www.w3.org/2000/svg"
 width="700.000000pt" height="700.000000pt" viewBox="0 0 700.000000 700.000000"
 preserveAspectRatio="xMidYMid meet">
<metadata>
Created by potrace 1.11, written by Peter Selinger 2001-2013
</metadata>
<g transform="translate(0.000000,700.000000) scale(0.100000,-0.100000)"
fill="#000000" stroke="none">
<path d="M159 6846 c-1 -1 -3 -1505 -4 -3343 -1 -2332 2 -3343 9 -3346 6 -2
585 -3 1286 -3 l1275 1 2 1000 c2 550 3 1020 3 1044 l0 44 385 -385 385 -386
385 385 385 385 0 -193 c0 -107 0 -577 1 -1044 l0 -851 1284 0 c878 0 1285 4
1286 11 5 32 4 6675 -1 6676 -3 1 -320 3 -705 4 l-700 2 -968 -968 -967 -967
-968 967 -967 967 -702 0 c-387 0 -704 0 -704 0z"/>
</g>
</svg>
